<svg width="56" height="79" viewBox="0 0 56 79" fill="none" xmlns="http://www.w3.org/2000/svg">
<path d="M54.2112 26.9337C53.8126 27.2893 46.7687 31.848 46.7687 41.9846C46.7687 53.7096 55.7317 57.8574 56 57.9601C55.9587 58.213 54.5759 63.6409 51.2742 69.1715C48.33 74.0383 45.2551 78.8973 40.5779 78.8973C35.9002 78.8973 34.6964 75.7764 29.2966 75.7764C24.0343 75.7764 22.1633 79 17.8847 79C13.6061 79 10.6208 74.4967 7.18827 68.966C3.21237 62.4713 0 52.3821 0 42.8064C0 27.4473 8.69471 19.3016 17.2519 19.3016C21.7987 19.3016 25.5889 22.7305 28.4436 22.7305C31.1607 22.7305 35.398 19.0962 40.571 19.0962C42.5314 19.0962 49.5749 19.3016 54.2112 26.9337ZM38.1152 12.5938C40.2545 9.67847 41.7677 5.63327 41.7677 1.58806C41.7677 1.0271 41.7264 0.458246 41.637 0C38.1565 0.150115 34.0154 2.66256 31.5184 5.98878C29.558 8.54864 27.7282 12.5938 27.7282 16.6943C27.7282 17.3106 27.8176 17.9269 27.8589 18.1244C28.079 18.1718 28.4367 18.2271 28.7944 18.2271C31.9174 18.2271 35.8451 15.8252 38.1152 12.5938Z" fill="white"/>
</svg>
