<svg width="30" height="20" viewBox="0 0 30 20" fill="none" xmlns="http://www.w3.org/2000/svg">
<rect width="30" height="20" rx="6" fill="black"/>
<path fill-rule="evenodd" clip-rule="evenodd" d="M15.2141 14.2975C14.1928 15.1544 12.8679 15.6717 11.4202 15.6717C8.18995 15.6717 5.57129 13.0962 5.57129 9.91917C5.57129 6.74216 8.18995 4.16669 11.4202 4.16669C12.8679 4.16669 14.1928 4.68398 15.2141 5.54088C16.2355 4.68398 17.5604 4.16669 19.0081 4.16669C22.2383 4.16669 24.857 6.74216 24.857 9.91917C24.857 13.0962 22.2383 15.6717 19.0081 15.6717C17.5604 15.6717 16.2355 15.1544 15.2141 14.2975Z" fill="#ED0006"/>
<path fill-rule="evenodd" clip-rule="evenodd" d="M15.2139 14.2975C16.4715 13.2424 17.2689 11.6724 17.2689 9.91917C17.2689 8.16599 16.4715 6.59599 15.2139 5.54088C16.2352 4.68398 17.5601 4.16669 19.0078 4.16669C22.2381 4.16669 24.8567 6.74216 24.8567 9.91917C24.8567 13.0962 22.2381 15.6717 19.0078 15.6717C17.5601 15.6717 16.2352 15.1544 15.2139 14.2975Z" fill="#F9A000"/>
<path fill-rule="evenodd" clip-rule="evenodd" d="M15.2142 14.2974C13.9566 13.2423 13.1592 11.6723 13.1592 9.91917C13.1592 8.166 13.9566 6.59601 15.2142 5.54089C16.4718 6.59601 17.2692 8.166 17.2692 9.91917C17.2692 11.6723 16.4718 13.2423 15.2142 14.2974Z" fill="#FF5E00"/>
</svg>
