<svg width="30" height="20" viewBox="0 0 30 20" fill="none" xmlns="http://www.w3.org/2000/svg">
<rect width="30" height="20" fill="white"/>
<rect width="30" height="20" rx="6" fill="#172B85"/>
<path fill-rule="evenodd" clip-rule="evenodd" d="M9.10764 13.5485H7.29022L5.92738 8.49362C5.8627 8.2611 5.72535 8.05553 5.52331 7.95865C5.01912 7.71517 4.46352 7.5214 3.85742 7.42367V7.22906H6.78514C7.18921 7.22906 7.49226 7.5214 7.54277 7.86092L8.24989 11.5072L10.0664 7.22906H11.8333L9.10764 13.5485ZM12.8435 13.5485H11.1271L12.5404 7.22906H14.2568L12.8435 13.5485ZM16.4774 8.97974C16.528 8.63938 16.831 8.44476 17.1846 8.44476C17.7402 8.3959 18.3454 8.49363 18.8505 8.73626L19.1535 7.37565C18.6484 7.18104 18.0928 7.08331 17.5886 7.08331C15.9227 7.08331 14.7105 7.95865 14.7105 9.17351C14.7105 10.0977 15.5692 10.583 16.1753 10.8753C16.831 11.1668 17.0835 11.3614 17.033 11.6529C17.033 12.0902 16.528 12.2848 16.0238 12.2848C15.4177 12.2848 14.8116 12.1391 14.2568 11.8956L13.9538 13.257C14.5599 13.4997 15.2156 13.5974 15.8217 13.5974C17.6897 13.6454 18.8505 12.7709 18.8505 11.4583C18.8505 9.80537 16.4774 9.70849 16.4774 8.97974ZM24.8574 13.5485L23.4946 7.22906H22.0307C21.7277 7.22906 21.4246 7.42367 21.3236 7.71517L18.8 13.5485H20.5669L20.9195 12.6252H23.0905L23.2925 13.5485H24.8574ZM22.2833 8.93088L22.7875 11.3126H21.3741L22.2833 8.93088Z" fill="white"/>
</svg>
