<svg width="50" height="30" viewBox="0 0 50 30" fill="none" xmlns="http://www.w3.org/2000/svg">
<g clip-path="url(#clip0_117_163)">
<path d="M0 0H0.5652V15.8087H0V0ZM1.1304 0H1.6956V15.8087H1.1304V0ZM4.52412 0H5.08932V15.8087H4.52412V0ZM15.5257 0H16.0909V15.8087H15.5257V0ZM19.2036 0H19.7689V15.8087H19.2036V0ZM22.7702 0H23.3354V15.8087H22.7702V0ZM23.6893 0H24.2545V15.8087H23.69L23.6893 0ZM24.6097 0H25.1749V15.8087H24.6097V0ZM25.6441 0H26.2093V15.8087H25.6443L25.6441 0ZM26.6784 0H27.2436V15.8087H26.6784V0ZM29.5537 0H30.1189V15.8087H29.5529L29.5537 0ZM36.6829 0H37.2481V15.8087H36.6829V0ZM44.1193 0H44.6843V15.8087H44.1191L44.1193 0ZM46.1533 0H46.7185V15.8087H46.1533V0ZM47.6239 0H48.1891V15.8087H47.6239V0ZM48.5287 0H49.0939V15.8087H48.5287V0ZM8.25664 0H8.82184V15.8087H8.25664V0ZM2.60096 0H3.61875V15.8087H2.60096V0ZM9.31738 0H10.335V15.8087H9.31738V0ZM14.0334 0H15.051V15.8087H14.0334V0ZM16.4479 0H17.4655V15.8087H16.4479V0ZM20.2423 0H21.2599V15.8087H20.2423V0ZM31.0603 0H32.6431V15.8087H31.0603V0ZM33.1278 0H34.371V15.8087H33.1264L33.1278 0ZM35.3094 0H36.327V15.8087H35.3094V0ZM38.1943 0H39.891V15.8087H38.1943V0ZM41.517 0H43.2139V15.8087H41.517V0ZM5.65509 0H7.69028V15.8087H5.65509V0ZM10.9302 0H12.513V15.8087H10.9302V0Z" fill="#010101"/>
<path d="M0.732422 29.8453V20.7968H3.95567C4.4943 20.7749 5.03155 20.8683 5.53498 21.0712C5.92086 21.2449 6.24614 21.5404 6.46609 21.9169C6.68408 22.2731 6.80107 22.6875 6.80334 23.1113C6.80336 23.4978 6.69981 23.8764 6.50459 24.2036C6.28465 24.5641 5.97155 24.8509 5.60213 25.0302C6.07621 25.1586 6.49748 25.4467 6.8018 25.8506C7.0834 26.2449 7.23088 26.7276 7.22052 27.221C7.22386 27.6305 7.13675 28.0352 6.96607 28.4032C6.82179 28.7331 6.60504 29.022 6.33374 29.2462C6.05134 29.4597 5.73159 29.6121 5.39296 29.6946C4.93891 29.8043 4.47386 29.8552 4.00811 29.8463L0.732422 29.8453ZM1.87018 24.5993H3.72774C4.09051 24.6142 4.45358 24.5789 4.80764 24.4943C5.06678 24.4251 5.29655 24.2667 5.46049 24.0443C5.61312 23.813 5.6902 23.5357 5.6801 23.2542C5.68534 22.9748 5.61413 22.6997 5.475 22.4617C5.34224 22.2358 5.13586 22.0686 4.89451 21.9915C4.46625 21.8877 4.02668 21.8451 3.58764 21.8649H1.87057L1.87018 24.5993ZM1.87018 28.7778H4.00849C4.26716 28.785 4.52595 28.7707 4.78248 28.735C5.0145 28.6953 5.23725 28.6095 5.43882 28.4821C5.62301 28.3567 5.77247 28.1823 5.87205 27.9766C5.98833 27.7428 6.04695 27.482 6.04252 27.2181C6.05051 26.9032 5.96449 26.5937 5.79659 26.3331C5.63082 26.083 5.39048 25.8984 5.11374 25.8086C4.70454 25.692 4.28101 25.6409 3.85737 25.657H1.87018V28.7778ZM8.88168 25.4393C8.8096 24.1499 9.22196 22.8823 10.0297 21.9106C10.4104 21.4894 10.8715 21.1581 11.3826 20.9385C11.8938 20.7188 12.4433 20.6158 12.995 20.6362C13.7484 20.6254 14.4901 20.8327 15.1393 21.2355C15.7704 21.6285 16.2769 22.2095 16.595 22.9052C16.9378 23.6631 17.1091 24.4943 17.0954 25.3337C17.1098 26.187 16.9296 27.0315 16.5698 27.7962C16.2432 28.4921 15.7217 29.0656 15.0759 29.4394C14.4373 29.8103 13.7193 30.0026 12.9902 29.9981C12.2272 30.0114 11.4762 29.798 10.823 29.3826C10.1945 28.9812 9.69112 28.3951 9.37471 27.6963C9.04843 26.9937 8.87975 26.2215 8.88168 25.4393V25.4393ZM10.0541 25.4582C10.0053 26.3997 10.3066 27.3242 10.894 28.0357C11.159 28.3413 11.4832 28.5836 11.8447 28.746C12.2062 28.9085 12.5965 28.9874 12.9894 28.9774C13.3846 28.9879 13.7773 28.9083 14.1406 28.744C14.5039 28.5797 14.8291 28.3346 15.094 28.0255C15.6868 27.2705 15.9834 26.3056 15.9234 25.328C15.9391 24.6661 15.82 24.0083 15.5741 23.3989C15.3574 22.8734 14.9963 22.4283 14.5374 22.1209C14.0787 21.8173 13.5465 21.6598 13.0049 21.6672C12.621 21.661 12.2399 21.7351 11.8833 21.885C11.5268 22.0349 11.202 22.2577 10.9277 22.5406C10.6032 22.9396 10.3585 23.4037 10.2083 23.9048C10.0582 24.4059 10.0057 24.9338 10.0541 25.4568V25.4582ZM18.9593 29.8459V20.7968H20.0957V28.777H24.3257V29.8453L18.9593 29.8459ZM26.1473 29.8459V20.7968H32.3585V21.8649H27.2837V24.637H32.0357V25.6987H27.2837V28.778H32.5578V29.8463L26.1473 29.8459ZM36.7578 29.8459V21.8649H33.9264V20.7968H40.7351V21.8649H37.8934V29.8453L36.7578 29.8459ZM41.7833 25.4393C41.7121 24.1496 42.1255 22.8823 42.9342 21.9112C43.3148 21.49 43.7759 21.1587 44.287 20.939C44.7981 20.7194 45.3476 20.6164 45.8993 20.6368C46.6527 20.626 47.3944 20.8333 48.0436 21.2361C48.6747 21.629 49.1813 22.21 49.4993 22.9059C49.8423 23.6636 50.0136 24.4949 49.9997 25.3343C50.0137 26.1877 49.8331 27.0322 49.473 27.7968C49.1452 28.4939 48.622 29.068 47.9741 29.4413C47.3356 29.8121 46.6176 30.0044 45.8885 30C45.125 30.0132 44.3735 29.7994 43.7201 29.3832C43.0929 28.9813 42.5907 28.3952 42.2753 27.6969C41.9493 26.994 41.7809 26.2216 41.7833 25.4393V25.4393ZM42.9556 25.4582C42.9069 26.3997 43.2082 27.3242 43.7956 28.0357C44.0606 28.3413 44.3848 28.5836 44.7463 28.746C45.1078 28.9085 45.4981 28.9874 45.891 28.9774C46.2873 28.9892 46.6814 28.9103 47.046 28.7462C47.4106 28.5821 47.7371 28.3366 48.003 28.0267C48.5957 27.2718 48.8923 26.3068 48.8321 25.3292C48.8444 24.6665 48.7216 24.0086 48.472 23.4001C48.2553 22.8747 47.8942 22.4296 47.4353 22.1221C46.9768 21.8188 46.4451 21.6612 45.9037 21.6684C45.5199 21.6623 45.1387 21.7363 44.7821 21.8862C44.4256 22.0361 44.1007 22.2589 43.8264 22.5418C43.5025 22.9409 43.2584 23.4048 43.1088 23.9057C42.9592 24.4065 42.9071 24.934 42.9556 25.4566V25.4582Z" fill="black"/>
</g>
<defs>
<clipPath id="clip0_117_163">
<rect width="50" height="30" fill="white"/>
</clipPath>
</defs>
</svg>
