<svg width="70" height="62" viewBox="0 0 70 62" fill="none" xmlns="http://www.w3.org/2000/svg">
<g clip-path="url(#clip0_117_361)">
<path fill-rule="evenodd" clip-rule="evenodd" d="M32.8467 15.5807H17.7279H13.9511C13.7346 15.5807 13.6549 15.7522 13.5637 15.9238L12.0484 18.714C11.9573 18.8855 12.225 19.0571 12.4358 19.0571H38.1389C39.8194 19.0621 36.9483 15.5807 32.8467 15.5807ZM56.425 38.6591V40.5462H54.2945C54.5508 39.6228 55.3769 38.8862 56.425 38.6591ZM54.2945 41.7824H56.425V43.6694C55.3769 43.4423 54.5508 42.7107 54.2945 41.7824ZM57.815 43.6694V41.7824H59.9455C59.6892 42.7107 58.8632 43.4423 57.815 43.6694ZM59.9512 40.5512H57.8207V38.6642C58.8632 38.8912 59.6892 39.6228 59.9512 40.5512ZM18.702 38.6591V40.5462H16.5715C16.8279 39.6228 17.6539 38.8862 18.702 38.6591ZM16.5715 41.7824H18.702V43.6694C17.6539 43.4423 16.8279 42.7107 16.5715 41.7824ZM20.092 43.6694V41.7824H22.2226C21.9719 42.7107 21.1459 43.4423 20.092 43.6694ZM22.2283 40.5512H20.0977V38.6642C21.1459 38.8912 21.9719 39.6228 22.2283 40.5512ZM18.9242 22.0239H16.919C14.0251 22.1399 12.8345 22.0491 11.6838 22.8261C10.2597 23.7898 9.7014 28.0483 9.10895 30.0161C9.06908 30.1473 9.23997 30.2684 9.39378 30.2684H18.2292C18.383 30.2684 18.497 30.1573 18.5141 30.0161L19.209 22.2711C19.2204 22.1399 19.078 22.0239 18.9242 22.0239ZM32.3511 22.0693H38.9022C41.893 22.0693 46.8148 26.4236 48.1023 29.9454C48.1649 30.117 47.9371 30.2734 47.732 30.2734H33.3879C33.1828 30.2734 33.0461 30.1271 33.0176 29.9454L31.9752 22.3973C31.9581 22.2156 32.1518 22.0693 32.3511 22.0693ZM29.5142 22.039H21.4991C21.3453 22.039 21.2257 22.1551 21.2143 22.2913L20.6047 30.0211C20.5933 30.1573 20.7357 30.2734 20.8896 30.2734H30.5567C30.7105 30.2734 30.8586 30.1573 30.8415 30.0211L29.7991 22.2913C29.782 22.15 29.6737 22.039 29.5142 22.039ZM57.12 35.9194C53.8502 35.9194 51.1955 38.2706 51.1955 41.1668C51.1955 44.0629 53.8502 46.4142 57.12 46.4142C60.3899 46.4142 63.0445 44.0629 63.0445 41.1668C63.0445 38.2706 60.3899 35.9194 57.12 35.9194ZM68.969 36.1565C68.6671 36.0354 68.3367 35.9799 67.9778 35.985C67.9949 34.33 67.8695 32.887 67.4366 31.8628C67.2771 31.2724 66.9866 30.8435 66.5992 30.5307C65.3801 29.567 54.4939 28.7194 52.1981 28.457C49.3783 26.0149 46.2395 23.7797 42.8956 21.6656C41.967 20.9694 40.6397 20.6263 38.9649 20.5909L12.5269 20.5708C10.5274 20.5607 8.98932 21.3175 8.00951 23.0179L5.80492 28.6437L5.30361 28.5226V26.3328C5.39476 25.6012 5.07005 25.2379 4.43773 25.1471H1.47549C0.660873 25.1774 0.0855179 25.5406 -0.00563049 26.5851V34.3654C-0.0113297 35.1676 0.319077 35.6923 1.15648 35.8033H3.90794C4.18138 35.8588 4.09593 36.0455 4.11872 36.3029V38.9568C4.3181 40.9145 4.92194 42.4282 6.69359 42.625H12.0541C11.9402 40.3242 12.4301 38.4422 13.6207 37.0345C17.9444 31.9183 27.3267 34.9658 26.6944 42.6401H49.7315C49.5378 40.1879 50.0619 38.3261 51.2069 36.9891C55.5193 31.9485 65.551 34.6681 64.3661 42.7965H67.9265C70.0741 42.7965 70.7748 36.868 68.969 36.1565ZM19.397 35.9194C16.1272 35.9194 13.4726 38.2706 13.4726 41.1668C13.4726 44.0629 16.1272 46.4142 19.397 46.4142C22.6669 46.4142 25.3215 44.0629 25.3215 41.1668C25.3215 38.2706 22.6726 35.9194 19.397 35.9194Z" fill="black"/>
</g>
<defs>
<clipPath id="clip0_117_361">
<rect width="70" height="62" fill="white" transform="matrix(-1 0 0 1 70 0)"/>
</clipPath>
</defs>
</svg>
