<svg width="149" height="86" viewBox="0 0 149 86" fill="none" xmlns="http://www.w3.org/2000/svg">
<path d="M89.2324 24.6667L96.9444 31.6603C97.4536 32.1222 98.0954 32.375 98.7582 32.375H130.706C131.369 32.375 132.011 32.1222 132.52 31.6603L140.232 24.6667M99.1491 43.1667H99.1774M130.316 43.1667H130.344M103.854 13.875H125.611C127.644 13.875 129.522 15.0608 130.531 16.9821L138.739 32.6146C139.718 34.4781 140.232 36.5871 140.232 38.7338V57.0417C140.232 58.7446 138.964 60.125 137.399 60.125H134.566C133.001 60.125 131.732 58.7446 131.732 57.0417V53.9583H97.7324V57.0417C97.7324 58.7446 96.4639 60.125 94.8991 60.125H92.0658C90.501 60.125 89.2324 58.7446 89.2324 57.0417V38.7338C89.2324 36.5871 89.7471 34.4781 90.7257 32.6146L98.9342 16.9821C99.9431 15.0608 101.821 13.875 103.854 13.875ZM100.566 43.1667C100.566 44.018 99.9315 44.7083 99.1491 44.7083C98.3667 44.7083 97.7324 44.018 97.7324 43.1667C97.7324 42.3154 98.3667 41.625 99.1491 41.625C99.9315 41.625 100.566 42.3154 100.566 43.1667ZM131.732 43.1667C131.732 44.018 131.098 44.7083 130.316 44.7083C129.533 44.7083 128.899 44.018 128.899 43.1667C128.899 42.3154 129.533 41.625 130.316 41.625C131.098 41.625 131.732 42.3154 131.732 43.1667Z" stroke="#6BEECE" stroke-width="5" stroke-linecap="round" stroke-linejoin="round"/>
<path d="M63.2707 40.0642C63.2707 52.1326 54.1542 61.6283 43.2516 61.6283C32.349 61.6283 23.2324 52.1326 23.2324 40.0642C23.2324 27.9958 32.349 18.5 43.2516 18.5C54.1542 18.5 63.2707 27.9958 63.2707 40.0642Z" stroke="#6BEECE" stroke-width="5"/>
<path d="M7.23273 83.5C-10.7673 78 33.9434 64.115 42.388 63.7808C59.4025 63.7808 90.2327 81 80.2327 83.5H7.23273Z" stroke="#6BEECE" stroke-width="5"/>
</svg>
