<svg width="81" height="54" viewBox="0 0 81 54" fill="none" xmlns="http://www.w3.org/2000/svg">
<path d="M3 14.1453L14.3411 21.3681C15.0899 21.8451 16.0338 22.1062 17.0085 22.1062H63.9912C64.9662 22.1062 65.91 21.8451 66.6587 21.3681L78 14.1453M17.5833 33.2515H17.625M63.4167 33.2515H63.4583M24.5027 3H56.4975C59.4879 3 62.2492 4.22461 63.7325 6.20895L75.8042 22.3536C77.2429 24.2782 78 26.4564 78 28.6733V47.5811C78 49.3398 76.1346 50.7655 73.8333 50.7655H69.6667C67.3654 50.7655 65.5 49.3398 65.5 47.5811V44.3968H15.5V47.5811C15.5 49.3398 13.6345 50.7655 11.3333 50.7655H7.16667C4.8655 50.7655 3 49.3398 3 47.5811V28.6733C3 26.4564 3.75692 24.2782 5.19596 22.3536L17.2673 6.20895C18.751 4.22461 21.5122 3 24.5027 3ZM19.6667 33.2515C19.6667 34.1307 18.7339 34.8437 17.5833 34.8437C16.4327 34.8437 15.5 34.1307 15.5 33.2515C15.5 32.3723 16.4327 31.6593 17.5833 31.6593C18.7339 31.6593 19.6667 32.3723 19.6667 33.2515ZM65.5 33.2515C65.5 34.1307 64.5671 34.8437 63.4167 34.8437C62.2662 34.8437 61.3333 34.1307 61.3333 33.2515C61.3333 32.3723 62.2662 31.6593 63.4167 31.6593C64.5671 31.6593 65.5 32.3723 65.5 33.2515Z" stroke="#6BEECE" stroke-width="5" stroke-linecap="round" stroke-linejoin="round"/>
</svg>
