<svg width="100" height="100" viewBox="0 0 100 100" fill="none" xmlns="http://www.w3.org/2000/svg">
<path d="M70.833 45.8333C59.3272 45.8333 49.9997 55.1608 49.9997 66.6667C49.9997 78.1725 59.3272 87.5 70.833 87.5C82.3388 87.5 91.6663 78.1725 91.6663 66.6667C91.6663 55.1608 82.3388 45.8333 70.833 45.8333ZM70.833 45.8333V37.5M70.833 37.5V34.1667C70.833 29.4996 70.833 27.166 69.9247 25.3834C69.1259 23.8154 67.8509 22.5405 66.283 21.7416C64.5005 20.8333 62.1668 20.8333 57.4997 20.8333H21.6663C16.9993 20.8333 14.6657 20.8333 12.8831 21.7416C11.315 22.5405 10.0402 23.8154 9.2413 25.3834C8.33301 27.166 8.33301 29.4996 8.33301 34.1667V37.5M70.833 37.5H8.33301M8.33301 37.5V65.8333C8.33301 70.5004 8.33301 72.8342 9.2413 74.6167C10.0402 76.1846 11.315 77.4596 12.8831 78.2583C14.6657 79.1667 16.9993 79.1667 21.6663 79.1667H54.1663M20.833 12.5V20.8333M58.333 12.5V20.8333M62.4997 66.6667H70.833M70.833 66.6667H79.1663M70.833 66.6667V58.3333M70.833 66.6667V75" stroke="#6BEECE" stroke-width="5" stroke-linecap="round" stroke-linejoin="round"/>
</svg>
