<svg width="253" height="89" viewBox="0 0 253 89" fill="none" xmlns="http://www.w3.org/2000/svg">
<path d="M50.0559 51.175C49.4796 49.0278 48.9033 46.8805 47.7758 44.5358C46.6482 42.191 44.6434 39.1552 41.9109 37.1882C39.1784 35.2211 33.0853 32.4274 27.322 30.0461C21.5588 27.6647 15.1351 25.2417 10.4713 23.0082C5.80746 20.7748 2.90376 18.7312 0 16.6875C1.17253 19.901 2.34504 23.1144 3.777 25.2617C5.20895 27.4091 6.90026 28.4902 8.71691 29.5973C10.5336 30.7044 12.4756 31.8375 12.4955 32.1324C12.5154 32.4274 10.6134 31.8843 9.18395 31.3412C7.75453 30.7981 6.79781 30.2549 5.84109 29.7118C8.89923 32.7094 11.9573 35.7069 12.5268 36.8976C13.0963 38.0882 11.1772 37.472 9.258 36.8558C12.9938 40.1562 16.7297 43.4566 19.9492 44.8242C23.1687 46.1917 25.7124 45.6597 27.8043 45.1013C29.8962 44.5428 31.5363 43.9579 35.1696 44.9659C38.803 45.9738 44.4294 48.5744 50.0559 51.175Z" fill="white"/>
<path d="M34.6691 62.6782C34.6256 62.6782 33.9074 62.6337 32.5145 62.5447C31.1652 62.5002 29.5982 62.3222 27.8136 62.0107C26.3337 61.7437 24.9844 61.5657 23.7656 61.4767C22.5904 61.3432 21.8722 61.2764 21.6111 61.2764C21.5675 57.5829 21.3717 53.1107 21.0234 47.8597C21.3717 47.8152 21.7199 47.7929 22.0681 47.7929C22.4598 47.7929 22.808 47.7929 23.1127 47.7929C23.9397 51.7089 25.3108 54.7349 27.226 56.8709C29.1847 59.0069 31.7528 60.0749 34.9303 60.0749C37.7595 60.0749 40.0664 59.2962 41.8511 57.7387C43.6357 56.1367 44.528 54.0452 44.528 51.4642C44.528 49.5062 44.0274 47.9042 43.0263 46.6582C42.0687 45.4122 40.7846 44.3664 39.1741 43.5209C37.6072 42.6309 35.9314 41.8077 34.1468 41.0512C32.0575 40.1167 30.0553 39.1377 28.1401 38.1142C26.2684 37.0462 24.7232 35.6889 23.5045 34.0424C22.2857 32.3959 21.6763 30.2599 21.6763 27.6344C21.6763 24.8309 22.351 22.4279 23.7003 20.4254C25.0932 18.4229 26.9431 16.9099 29.25 15.8864C31.5569 14.8184 34.1033 14.2844 36.889 14.2844C37.7595 14.2844 38.6518 14.3289 39.5659 14.4179C40.5235 14.5069 41.5028 14.6404 42.504 14.8184C43.7662 14.9964 44.7238 15.1077 45.3767 15.1522C46.0732 15.1967 46.5302 15.2189 46.7478 15.2189C46.8784 15.2189 47.1178 15.2189 47.466 15.2189C47.8142 15.1744 48.0972 15.1299 48.3148 15.0854C48.4018 17.0434 48.4889 19.0682 48.576 21.1597C48.663 23.2512 48.7936 25.4317 48.9677 27.7012C48.0972 27.8347 47.379 27.8792 46.8131 27.8347C45.812 23.9632 44.5715 21.1819 43.0916 19.4909C41.6117 17.7554 39.5006 16.8877 36.7584 16.8877C34.3644 16.8877 32.3187 17.5552 30.6211 18.8902C28.9236 20.1807 28.0748 22.1164 28.0748 24.6974C28.0748 26.0769 28.3795 27.3007 28.9889 28.3687C29.6418 29.4367 30.7082 30.4602 32.1881 31.4392C33.668 32.4182 35.7138 33.4639 38.3254 34.5764C39.7618 35.1994 41.1981 35.8892 42.6345 36.6457C44.1145 37.4022 45.4638 38.3144 46.6825 39.3824C47.9013 40.4059 48.8806 41.6742 49.6206 43.1872C50.3606 44.6557 50.7305 46.4134 50.7305 48.4604C50.7305 51.4864 49.9906 54.0674 48.5107 56.2034C47.0308 58.2949 45.072 59.8969 42.6345 61.0094C40.2406 62.1219 37.5854 62.6782 34.6691 62.6782ZM54.5745 14.9519C55.445 14.9519 56.4897 14.9742 57.7084 15.0187C58.9707 15.0187 60.2112 15.0409 61.43 15.0854C62.6923 15.0854 63.7369 15.0854 64.5639 15.0854C65.3909 15.0854 66.4138 15.0854 67.6326 15.0854C68.8948 15.0409 70.1571 15.0187 71.4194 15.0187C72.6817 14.9742 73.7481 14.9519 74.6186 14.9519C74.7492 15.6194 74.7492 16.3092 74.6186 17.0212C72.6164 17.1992 71.1582 17.3994 70.2442 17.6219C69.3301 17.8444 68.7643 18.2894 68.5466 18.9569C68.329 19.6244 68.2202 20.7592 68.2202 22.3612V44.1884C68.2202 49.1724 69.2648 52.8882 71.3541 55.3357C73.4869 57.7387 76.5773 58.9402 80.6253 58.9402C84.891 58.9402 88.112 57.5829 90.2883 54.8684C92.4647 52.1539 93.5528 47.9487 93.5528 42.2527V23.9632C93.5528 22.4057 93.4875 21.2042 93.357 20.3587C93.2699 19.4687 92.987 18.8234 92.5082 18.4229C92.0729 18.0224 91.3982 17.7554 90.4842 17.6219C89.5701 17.4439 88.2861 17.2659 86.6321 17.0879C86.5015 16.4204 86.5015 15.7307 86.6321 15.0187C87.8073 15.0187 89.2219 15.0409 90.8759 15.0854C92.5299 15.1299 93.8575 15.1522 94.8586 15.1522C95.9468 15.1522 97.2961 15.1299 98.9066 15.0854C100.561 15.0409 101.997 15.0187 103.216 15.0187C103.346 15.6862 103.346 16.3759 103.216 17.0879C101.214 17.3104 99.7554 17.5329 98.8413 17.7554C97.9273 17.9779 97.3397 18.4674 97.0785 19.2239C96.8609 19.9804 96.7521 21.2709 96.7521 23.0954V43.6544C96.7521 49.5729 95.2504 54.2009 92.247 57.5384C89.2437 60.8314 84.6951 62.4779 78.6013 62.4779C75.1192 62.4779 72.0505 61.8994 69.3954 60.7424C66.7838 59.5854 64.738 57.8054 63.2581 55.4024C61.7782 52.9549 61.0382 49.8844 61.0382 46.1909V23.2289C61.0382 21.3599 60.9294 20.0249 60.7118 19.2239C60.4942 18.4229 59.9283 17.9112 59.0142 17.6887C58.1002 17.4217 56.6203 17.1992 54.5745 17.0212C54.4439 16.3537 54.4439 15.6639 54.5745 14.9519ZM135.182 51.5977L149.154 15.0187C150.068 15.0632 151.026 15.0854 152.027 15.0854C153.028 15.0854 153.877 15.0854 154.573 15.0854C154.921 15.0854 155.553 15.0854 156.467 15.0854C157.424 15.0409 158.447 15.0187 159.535 15.0187C160.667 15.0187 161.69 15.0187 162.604 15.0187C163.561 14.9742 164.214 14.9519 164.563 14.9519C164.693 15.6194 164.693 16.3092 164.563 17.0212H164.432C162.43 17.2437 160.972 17.4662 160.058 17.6887C159.143 17.8667 158.578 18.3117 158.36 19.0237C158.186 19.6912 158.099 20.8037 158.099 22.3612L158.621 53.5334C158.621 54.9129 158.665 56.0032 158.752 56.8042C158.839 57.6052 159.078 58.1837 159.47 58.5397C159.862 58.8957 160.493 59.1627 161.363 59.3407C162.234 59.4742 163.474 59.6077 165.085 59.7412C165.215 60.4087 165.215 61.0984 165.085 61.8104C164.737 61.8104 164.084 61.7882 163.126 61.7437C162.212 61.7437 161.189 61.7437 160.058 61.7437C158.969 61.7437 157.946 61.7437 156.989 61.7437C156.075 61.6992 155.444 61.6769 155.095 61.6769C154.747 61.6769 154.116 61.6992 153.202 61.7437C152.288 61.7437 151.287 61.7437 150.199 61.7437C149.111 61.7437 148.109 61.7437 147.195 61.7437C146.281 61.7882 145.65 61.8104 145.302 61.8104C145.258 61.1429 145.258 60.4532 145.302 59.7412H145.433C147.348 59.5187 148.741 59.3184 149.611 59.1404C150.482 58.9179 151.004 58.4729 151.178 57.8054C151.396 57.0934 151.505 55.9587 151.505 54.4012L150.917 18.6232L134.464 61.6769C134.159 61.8104 133.68 61.8994 133.027 61.9439C132.374 61.9884 131.809 62.0107 131.33 62.0107L115.856 20.0249L114.811 54.4012C114.768 55.8697 114.833 56.9377 115.007 57.6052C115.181 58.2282 115.704 58.6732 116.574 58.9402C117.445 59.2072 118.903 59.4742 120.949 59.7412C121.123 60.4532 121.123 61.1429 120.949 61.8104C120.513 61.8104 119.752 61.7882 118.663 61.7437C117.619 61.7437 116.552 61.7437 115.464 61.7437C114.42 61.6992 113.658 61.6769 113.179 61.6769C112.918 61.6769 112.396 61.6992 111.612 61.7437C110.872 61.7437 110.045 61.7437 109.131 61.7437C108.217 61.7437 107.368 61.7437 106.585 61.7437C105.845 61.7882 105.344 61.8104 105.083 61.8104C104.996 61.0984 104.996 60.4087 105.083 59.7412C107.129 59.4742 108.587 59.2072 109.458 58.9402C110.328 58.6732 110.872 58.1392 111.09 57.3382C111.351 56.5372 111.503 55.2689 111.547 53.5334L112.787 22.3612C112.874 20.8037 112.809 19.6912 112.591 19.0237C112.374 18.3562 111.786 17.9112 110.829 17.6887C109.915 17.4217 108.391 17.1992 106.258 17.0212C106.215 16.3092 106.215 15.6194 106.258 14.9519C107.738 14.9519 109.262 14.9742 110.829 15.0187C112.396 15.0632 114.137 15.0854 116.052 15.0854C116.705 15.0854 117.575 15.0854 118.663 15.0854C119.752 15.0854 120.753 15.0632 121.667 15.0187L135.182 51.5977ZM167.876 14.9519C168.747 14.9519 169.791 14.9742 171.01 15.0187C172.272 15.0187 173.513 15.0409 174.732 15.0854C175.994 15.0854 177.038 15.0854 177.866 15.0854C178.693 15.0854 179.715 15.0854 180.934 15.0854C182.196 15.0409 183.459 15.0187 184.721 15.0187C185.983 14.9742 187.05 14.9519 187.92 14.9519C188.051 15.6194 188.051 16.3092 187.92 17.0212C185.918 17.1992 184.46 17.3994 183.546 17.6219C182.632 17.8444 182.066 18.2894 181.848 18.9569C181.631 19.6244 181.522 20.7592 181.522 22.3612V44.1884C181.522 49.1724 182.566 52.8882 184.656 55.3357C186.788 57.7387 189.879 58.9402 193.927 58.9402C198.193 58.9402 201.414 57.5829 203.59 54.8684C205.766 52.1539 206.854 47.9487 206.854 42.2527V23.9632C206.854 22.4057 206.789 21.2042 206.659 20.3587C206.571 19.4687 206.289 18.8234 205.81 18.4229C205.374 18.0224 204.7 17.7554 203.786 17.6219C202.872 17.4439 201.588 17.2659 199.934 17.0879C199.803 16.4204 199.803 15.7307 199.934 15.0187C201.109 15.0187 202.523 15.0409 204.177 15.0854C205.832 15.1299 207.159 15.1522 208.16 15.1522C209.248 15.1522 210.598 15.1299 212.208 15.0854C213.862 15.0409 215.299 15.0187 216.517 15.0187C216.648 15.6862 216.648 16.3759 216.517 17.0879C214.515 17.3104 213.057 17.5329 212.143 17.7554C211.229 17.9779 210.641 18.4674 210.38 19.2239C210.162 19.9804 210.054 21.2709 210.054 23.0954V43.6544C210.054 49.5729 208.552 54.2009 205.549 57.5384C202.545 60.8314 197.997 62.4779 191.903 62.4779C188.421 62.4779 185.352 61.8994 182.697 60.7424C180.085 59.5854 178.04 57.8054 176.56 55.4024C175.08 52.9549 174.34 49.8844 174.34 46.1909V23.2289C174.34 21.3599 174.231 20.0249 174.013 19.2239C173.796 18.4229 173.23 17.9112 172.316 17.6887C171.402 17.4217 169.922 17.1992 167.876 17.0212C167.745 16.3537 167.745 15.6639 167.876 14.9519ZM233.728 62.6782C233.684 62.6782 232.966 62.6337 231.573 62.5447C230.224 62.5002 228.657 62.3222 226.872 62.0107C225.392 61.7437 224.043 61.5657 222.824 61.4767C221.649 61.3432 220.931 61.2764 220.67 61.2764C220.626 57.5829 220.43 53.1107 220.082 47.8597C220.43 47.8152 220.779 47.7929 221.127 47.7929C221.519 47.7929 221.867 47.7929 222.171 47.7929C222.999 51.7089 224.37 54.7349 226.285 56.8709C228.243 59.0069 230.812 60.0749 233.989 60.0749C236.818 60.0749 239.125 59.2962 240.91 57.7387C242.694 56.1367 243.587 54.0452 243.587 51.4642C243.587 49.5062 243.086 47.9042 242.085 46.6582C241.127 45.4122 239.843 44.3664 238.233 43.5209C236.666 42.6309 234.99 41.8077 233.206 41.0512C231.116 40.1167 229.114 39.1377 227.199 38.1142C225.327 37.0462 223.782 35.6889 222.563 34.0424C221.344 32.3959 220.735 30.2599 220.735 27.6344C220.735 24.8309 221.41 22.4279 222.759 20.4254C224.152 18.4229 226.002 16.9099 228.309 15.8864C230.616 14.8184 233.162 14.2844 235.948 14.2844C236.818 14.2844 237.711 14.3289 238.625 14.4179C239.582 14.5069 240.562 14.6404 241.563 14.8184C242.825 14.9964 243.783 15.1077 244.436 15.1522C245.132 15.1967 245.589 15.2189 245.807 15.2189C245.937 15.2189 246.177 15.2189 246.525 15.2189C246.873 15.1744 247.156 15.1299 247.374 15.0854C247.461 17.0434 247.548 19.0682 247.635 21.1597C247.722 23.2512 247.852 25.4317 248.026 27.7012C247.156 27.8347 246.438 27.8792 245.872 27.8347C244.871 23.9632 243.63 21.1819 242.15 19.4909C240.67 17.7554 238.559 16.8877 235.817 16.8877C233.423 16.8877 231.377 17.5552 229.68 18.8902C227.982 20.1807 227.134 22.1164 227.134 24.6974C227.134 26.0769 227.438 27.3007 228.048 28.3687C228.701 29.4367 229.767 30.4602 231.247 31.4392C232.727 32.4182 234.773 33.4639 237.384 34.5764C238.821 35.1994 240.257 35.8892 241.693 36.6457C243.173 37.4022 244.523 38.3144 245.741 39.3824C246.96 40.4059 247.939 41.6742 248.679 43.1872C249.419 44.6557 249.789 46.4134 249.789 48.4604C249.789 51.4864 249.049 54.0674 247.569 56.2034C246.09 58.2949 244.131 59.8969 241.693 61.0094C239.299 62.1219 236.644 62.6782 233.728 62.6782Z" fill="white"/>
</svg>
