<svg width="150" height="86" viewBox="0 0 150 86" fill="none" xmlns="http://www.w3.org/2000/svg">
<path d="M16.0074 40.1325L18.1843 40.0058C15.9198 41.6232 15.3376 46.8922 16.5314 49.4684C17.2388 50.995 17.9433 52.1723 18.9816 53.1523C21.755 55.21 23.5626 55.6966 26.9878 55.6966C28.8048 55.6966 30.5295 55.2887 31.8057 54.8314C33.1036 54.374 34.2526 53.384 35.0746 52.5783C36.3369 51.5865 37.3337 49.6223 37.5647 47.1929C37.7518 45.2254 37.1055 43.1147 36.543 42.0258C35.9806 40.9151 35.1911 39.9787 34.1744 39.2164C33.1793 38.4324 31.9788 37.7573 30.5727 37.1911C29.1667 36.6248 27.62 36.0368 25.9328 35.427C24.2455 34.8172 22.634 34.1748 21.0981 33.4997C19.5839 32.8245 18.2428 31.9861 17.0747 30.9843C15.9066 29.9825 14.9764 28.7629 14.2842 27.3256C13.6136 25.8664 13.2783 24.0588 13.2783 21.9028C13.2783 19.8774 13.6028 18.0263 14.2517 16.3494C14.9007 14.6725 15.8633 13.246 17.1395 12.07C18.4158 10.8722 19.9949 9.94659 21.8769 9.29325C23.7804 8.6399 25.9868 8.31323 28.4961 8.31323C29.4912 8.31323 31.2424 8.55776 31.9247 8.79337C37.3793 10.7092 40.4921 14.1864 40.1741 20.586L38.8468 22.3601C38.6521 20.0081 38.2195 18.0916 37.5489 16.6107C36.8783 15.1298 36.0563 13.9756 35.0829 13.148C34.1311 12.2986 33.0604 11.7215 31.8706 11.4166C30.7025 11.0899 29.502 10.9266 28.269 10.9266C26.625 10.9266 25.1973 11.1335 23.9859 11.5473C22.7746 11.9393 21.7687 12.5164 20.9683 13.2787C20.168 14.0191 19.5623 14.9338 19.1513 16.0227C18.7619 17.0898 18.5672 18.2985 18.5672 19.6488C18.5672 21.2603 18.8484 22.5997 19.4109 23.6668C19.9733 24.734 20.7628 25.6595 21.7795 26.4435C22.8178 27.2058 24.0508 27.8918 25.4785 28.5016C26.9278 29.0896 28.5177 29.7103 30.2483 30.3636C31.8274 30.9734 33.374 31.6267 34.8882 32.3236C36.4241 32.9988 37.7869 33.859 38.9766 34.9044C40.188 35.9279 41.1614 37.202 41.8968 38.7264C42.6323 40.2291 43.0001 42.102 43.0001 44.3452C43.0001 46.523 42.6215 48.4613 41.8644 50.16C41.1289 51.8587 40.0582 53.2851 38.6521 54.4394C37.2677 55.5936 35.5696 56.4756 33.5579 57.0854C31.5462 57.6952 29.2748 58.0001 26.744 58.0001C25.6407 58.0001 22.7142 57.8112 20.946 57.2543C18.6329 56.3477 17.3397 55.1229 15.9612 53.4818C14.6376 51.6933 12.486 45.3373 16.0074 40.1325Z" fill="black"/>
<path d="M69.4 48.18C69.4 49.9067 69.05 51.47 68.35 52.87C67.65 54.2467 66.5767 55.3433 65.13 56.16C63.7067 56.9533 61.8867 57.35 59.67 57.35C56.5667 57.35 54.1983 56.51 52.565 54.83C50.955 53.1267 50.15 50.8867 50.15 48.11V32.01H53.3V48.215C53.3 50.245 53.8367 51.82 54.91 52.94C56.0067 54.06 57.6517 54.62 59.845 54.62C61.3617 54.62 62.5867 54.3517 63.52 53.815C64.4767 53.255 65.1767 52.4967 65.62 51.54C66.0633 50.56 66.285 49.44 66.285 48.18V32.01H69.4V48.18ZM87.0206 57L78.7956 35.09H78.6556C78.7023 35.5567 78.7373 36.1517 78.7606 36.875C78.8073 37.5983 78.8423 38.3917 78.8656 39.255C78.8889 40.095 78.9006 40.9583 78.9006 41.845V57H75.9956V32.01H80.6506L88.3506 52.485H88.4906L96.3306 32.01H100.951V57H97.8356V41.635C97.8356 40.8183 97.8473 40.0133 97.8706 39.22C97.8939 38.4033 97.9289 37.645 97.9756 36.945C98.0223 36.2217 98.0573 35.615 98.0806 35.125H97.9406L89.6106 57H87.0206ZM126.754 48.18C126.754 49.9067 126.404 51.47 125.704 52.87C125.004 54.2467 123.93 55.3433 122.484 56.16C121.06 56.9533 119.24 57.35 117.024 57.35C113.92 57.35 111.552 56.51 109.919 54.83C108.309 53.1267 107.504 50.8867 107.504 48.11V32.01H110.654V48.215C110.654 50.245 111.19 51.82 112.264 52.94C113.36 54.06 115.005 54.62 117.199 54.62C118.715 54.62 119.94 54.3517 120.874 53.815C121.83 53.255 122.53 52.4967 122.974 51.54C123.417 50.56 123.639 49.44 123.639 48.18V32.01H126.754V48.18ZM147.524 50.315C147.524 51.8083 147.162 53.08 146.439 54.13C145.716 55.1567 144.677 55.95 143.324 56.51C141.994 57.07 140.419 57.35 138.599 57.35C137.666 57.35 136.767 57.3033 135.904 57.21C135.064 57.1167 134.294 56.9883 133.594 56.825C132.894 56.6383 132.276 56.4167 131.739 56.16V53.15C132.579 53.5233 133.617 53.8617 134.854 54.165C136.114 54.4683 137.409 54.62 138.739 54.62C139.976 54.62 141.014 54.4567 141.854 54.13C142.694 53.8033 143.324 53.3367 143.744 52.73C144.164 52.1233 144.374 51.4117 144.374 50.595C144.374 49.7783 144.199 49.09 143.849 48.53C143.499 47.97 142.892 47.4567 142.029 46.99C141.189 46.5 140.011 45.9867 138.494 45.45C137.421 45.0533 136.476 44.6333 135.659 44.19C134.866 43.7233 134.201 43.1983 133.664 42.615C133.127 42.0317 132.719 41.3667 132.439 40.62C132.182 39.8733 132.054 39.01 132.054 38.03C132.054 36.7 132.392 35.5683 133.069 34.635C133.746 33.6783 134.679 32.9433 135.869 32.43C137.082 31.9167 138.471 31.66 140.034 31.66C141.411 31.66 142.671 31.7883 143.814 32.045C144.957 32.3017 145.996 32.64 146.929 33.06L145.949 35.755C145.086 35.3817 144.141 35.0667 143.114 34.81C142.111 34.5533 141.061 34.425 139.964 34.425C138.914 34.425 138.039 34.5767 137.339 34.88C136.639 35.1833 136.114 35.615 135.764 36.175C135.414 36.7117 135.239 37.3417 135.239 38.065C135.239 38.905 135.414 39.605 135.764 40.165C136.114 40.725 136.686 41.2267 137.479 41.67C138.272 42.1133 139.346 42.5917 140.699 43.105C142.169 43.6417 143.406 44.225 144.409 44.855C145.436 45.4617 146.206 46.1967 146.719 47.06C147.256 47.9233 147.524 49.0083 147.524 50.315Z" fill="black"/>
<path d="M39.5853 35.4668C34.9267 29.7973 8.02683 23.5462 25.799 0C-4.99229 13.9035 14.2264 27.3584 14.2264 27.3584C14.2264 27.3584 3.68713 27.3584 6.37362 12.1095C-14.085 45.9711 21.2526 34.5344 21.2526 34.5344C14.2688 40.3208 7.20022 38.7952 7.20022 38.7952C18.0929 45.0657 24.0552 34.8179 39.5853 35.4668Z" fill="url(#paint0_linear_145_625)"/>
<path d="M27.3598 34.7523C23.093 34.0008 25.0835 33.859 21.2155 34.5265C14.2976 40.2832 7.29102 38.8429 7.29102 38.8429C17.2769 43.0343 16.8914 34.7616 27.3598 34.7523Z" fill="#19DB9E"/>
<path d="M22.4946 30.8985C18.3248 28.7304 18.4074 29.0508 14.1613 27.3679C3.27345 26.131 6.27897 12.3251 6.27897 12.3251C1.15912 25.5552 1.64396 25.8142 22.4946 30.8985Z" fill="#19DB9E"/>
<path d="M39.5727 35.4259C28.7144 25.9277 10.3853 22.491 25.4267 0.179199C5.75719 19.534 22.0392 25.166 22.0392 25.166C33.1645 30.9904 39.5727 35.4259 39.5727 35.4259Z" fill="#19DB9E"/>
<defs>
<linearGradient id="paint0_linear_145_625" x1="-1.1334e-08" y1="20.431" x2="40.058" y2="20.431" gradientUnits="userSpaceOnUse">
<stop stop-color="#6BEECE"/>
</linearGradient>
</defs>
</svg>
